<svg xmlns="http://www.w3.org/2000/svg" version="1.1" xmlns:xlink="http://www.w3.org/1999/xlink" width="1000" height="1000"><g clip-path="url(#SvgjsClipPath1075)"><rect width="1000" height="1000" fill="#ffffff"></rect><g transform="matrix(3.3333333333333335,0,0,3.3333333333333335,0,0)"><svg xmlns="http://www.w3.org/2000/svg" version="1.1" id="svg" viewBox="0 0 300 300" width="300" height="300"><svg><defs><clipPath id="clip-1"><rect x="0" y="0" transform="scale(0.15,0.15)" width="2000" height="2000" fill="none"></rect></clipPath><clipPath id="SvgjsClipPath1075"><rect width="1000" height="1000" x="0" y="0" rx="400" ry="400"></rect></clipPath></defs><g clip-path="url(#clip-1)" fill="none" fill-rule="nonzero" stroke="none" stroke-width="1" stroke-linecap="butt" stroke-linejoin="miter" stroke-miterlimit="10" stroke-dasharray="" stroke-dashoffset="0" font-family="none" font-weight="none" font-size="none" text-anchor="none" style="mix-blend-mode: normal"><path d="M234.3885,104.9154c0.195,-0.04125 0.1155,-0.0375 0.3285,-0.0237c3.261,0.2094 6.5475,0.12345 9.8145,0.09255c1.5105,-0.01425 2.979,0.06615 4.4745,0.00615l-0.006,60.6681c-0.0225,9.6675 0.171,19.707 -0.0315,29.328c-2.9865,0.075 -16.008,-0.2475 -17.8125,0.333c-0.3555,-3.426 -0.129,-11.1495 -0.135,-14.919l-0.0195,-8.688c-0.0015,-1.5705 -0.0645,-3.624 0.096,-5.1495c0.6525,-0.7755 3.198,-3.1455 4.08,-3.957c3.54,-3.2625 7.0395,-6.609 10.5585,-9.8775l-10.998,-10.2816c-0.972,-0.9252 -1.986,-1.81065 -2.9625,-2.74065c-0.981,-0.82755 -0.876,-2.07435 -0.825,-3.294c0.162,-3.85005 0.0075,-7.71255 0.0705,-11.5653l-27.894,26.28405c-2.7105,2.562 -5.3325,5.286 -8.0805,7.815c-1.1565,1.065 -2.487,2.463 -3.747,3.36c-1.98,-1.836 -4.5255,-4.293 -6.333,-6.273c-6.5865,-7.2162 -13.635,-14.0139 -20.4465,-21.02385c-2.5995,-2.67585 -5.01,-5.38665 -7.7025,-7.9683c0.102,1.5009 -0.0315,3.9132 -0.03,5.52705l-0.0075,13.75755l0.105,33.54705c0.0105,4.9485 -0.222,10.257 -0.0765,15.144c-4.512,-0.066 -9.15825,-0.012 -13.6815,-0.015c0.11745,-3.8415 0.0333,-7.596 0.05445,-11.4285l0.07485,-24.681l-0.00225,-17.46495c0.015,-4.71015 0.0957,-9.6885 -0.0735,-14.3685l-0.3897,0.3423c-1.53735,1.3326 -4.2261,4.76955 -5.4057,5.76225c-3.63735,3.06075 -27.3114,28.7694 -28.8975,28.9764c-0.89475,-0.597 -4.0662,-3.705 -5.01465,-4.59c-2.7492,-2.808 -5.1942,-4.9365 -7.97205,-7.5753l-11.66235,-11.1984c-1.42155,-1.3473 -13.84905,-13.4913 -14.6253,-13.722c-0.3381,1.38705 -0.18135,4.47045 -0.1776,6.021l-0.04095,7.72245c-0.57255,1.0212 -2.1072,2.20995 -3.03375,3.07185c-2.0517,1.9299 -4.11885,3.84345 -6.20115,5.7405c-1.6068,1.45155 -4.12995,3.5484 -5.40315,5.2284c4.755,4.731 9.855,9.09 14.61735,13.7865c0.1485,8.8845 0.16725,19.4805 -0.0504,28.341c-5.79465,0.1605 -12.0342,0.0345 -17.8659,0.0255c-0.09165,-9.06 -0.11055,-18.1215 -0.05625,-27.183l0.01395,-62.9238c3.9135,0.4014 8.8479,0.01605 12.86805,0.11445c1.8513,0.0453 3.8073,-0.1407 5.6403,0.22215c2.3973,1.8717 6.78045,6.5046 9.27645,8.81115l21.0519,19.54935c2.7507,2.5707 5.4363,5.3226 8.2338,7.8243c8.99955,-9.6882 18.14295,-19.2417 27.4272,-28.6572c2.4081,-2.43465 4.7334,-5.32545 7.1541,-7.5372c1.52085,-0.30195 4.6374,-0.20595 6.31365,-0.19935c2.6901,0.01275 5.3811,0.0024 8.0721,-0.0309c2.0985,1.56525 5.6475,5.8542 7.6365,7.8891l20.154,20.8878c2.436,2.52285 4.743,5.22525 7.2495,7.6662c8.0025,-7.84365 16.1475,-15.54045 24.4305,-23.0862c3.201,-2.91 6.3405,-5.71365 9.4005,-8.8053c1.26,-1.27305 2.949,-2.63865 4.0245,-4.0161c1.6335,-0.63135 2.718,-0.5409 4.44,-0.60105z" fill="#000000"></path><path d="M165.84,151.4475c0.729,0.099 1.2945,0.732 1.8195,1.212c3.228,2.9535 6.495,5.8245 9.6405,8.8695c1.677,1.623 3.528,3.0975 5.082,4.8465c-2.3325,2.634 -6.2505,5.826 -8.8335,8.283c-1.98,1.881 -4.485,4.4505 -6.5895,6.06c-0.3165,0.249 -0.6645,0.501 -0.9885,0.744c-1.209,-1.032 -3.837,-3.5895 -4.5915,-4.869c2.0235,-2.5095 5.6745,-5.0115 7.9575,-7.4865c0.93,-1.008 1.986,-1.5255 2.931,-2.76c-3.369,-3.3825 -7.308,-6.5625 -10.827,-10.0815c1.1385,-1.6725 2.952,-3.3675 4.3995,-4.818z" fill="#1c51fc"></path><path d="M218.838,140.6433c0.135,0.05175 0.5055,0.2334 0.594,0.3315c1.83,2.0157 14.688,12.6252 14.9055,14.0757c-0.7065,1.1325 -2.217,2.307 -3.1575,3.291c-3.306,3.4635 -8.091,7.002 -11.232,10.4895l-0.09,0.102c-0.4515,0.4365 -0.489,0.456 -0.981,0.459c-1.3815,-0.741 -3.4215,-3.345 -4.4025,-4.638c1.314,-1.284 2.9025,-2.5845 4.2645,-3.8895c1.6995,-1.626 4.305,-4.4385 6.2235,-5.7405c-3.2265,-2.7345 -6.3405,-6.07845 -9.48,-8.95035c-0.309,-0.2823 -0.6045,-0.76575 -0.666,-1.18665c0.4875,-1.16445 2.9955,-3.3399 4.0215,-4.3437z" fill="#000000"></path><path d="M81.1368,140.79075c0.81945,0.3945 3.75315,3.45585 4.2117,4.35225c-0.14235,0.9123 -9.0009,8.331 -10.38825,10.0605c2.4648,1.341 3.11475,2.6895 5.04645,4.3875c2.0502,1.8015 3.738,3.321 5.6625,5.271l-0.20355,0.2295c-0.8979,0.996 -2.98155,3.372 -4.1844,4.2285c-0.18495,0.009 -0.36975,0.0195 -0.5547,0.0285c-1.78395,-1.4985 -3.3927,-3.279 -5.11635,-4.803c-2.51055,-2.22 -4.94055,-4.422 -7.32285,-6.7815c-0.795,-0.789 -2.10495,-1.9155 -2.69295,-2.7855c0.2694,-0.7815 13.773,-12.99675 15.5424,-14.18775z" fill="#000000"></path></g></svg></svg></g></g></svg>